# xmcd
#
# Track frame offsets: 
#        150
#        14185
#        36986
#        51111
#        70320
#        91542
#        112097
#        131097
#        153453
#        171213
#        193982
#
# Disc length: 2852 seconds
#
# Revision: 0
# Processed by: cddbd v1.5.2PL0 Copyright (c) Steve Scherf et al.
# Submitted via: ExactAudioCopy v0.95a5
#
DISCID=9f0b220b
DTITLE=Ben Harper And Relentless 7 - Whie Lies For Dark Times
DYEAR=2009
DGENRE=Blues
TTITLE0=Number With No Name
TTITLE1=Up To You Now
TTITLE2=Shimmer and Shine
TTITLE3=Lay There and Hate Me
TTITLE4=Why Must You Always Dress In Black
TTITLE5=Skin Thin
TTITLE6=Fly One Time
TTITLE7=Keep It Together (So I Can Fall Apart)
TTITLE8=Boots Like These
TTITLE9=The Worl Suicide
TTITLE10=Faithfully Remain
EXTD=
EXTT0=
EXTT1=
EXTT2=
EXTT3=
EXTT4=
EXTT5=
EXTT6=
EXTT7=
EXTT8=
EXTT9=
EXTT10=
PLAYORDER=
